<svg width="32" height="32" viewBox="0 0 32 32" fill="none" xmlns="http://www.w3.org/2000/svg">
<path d="M15.5325 30.2666L15.7515 29.8171L15.5325 30.2666C15.8218 30.4075 16.1644 30.4129 16.4582 30.2803C17.7712 29.6878 18.9438 29.1409 19.9985 28.6134C27.1087 25.0569 28.9443 16.6774 28.9439 9.01619C28.9439 7.51591 27.8276 6.25151 26.2789 5.75388L16.6044 1.49735C16.2195 1.328 15.7812 1.328 15.3963 1.49733L5.72098 5.75383C4.16955 6.25158 3.05579 7.51626 3.05579 9.01619V9.01621C3.05612 16.6947 5.05079 24.856 12.0809 28.5355C13.1117 29.0749 14.2558 29.6446 15.5325 30.2666Z" fill="#7AC45A" stroke="white"/>
<path d="M20.7519 17.8865C20.7519 19.9721 19.3359 21.2408 17.235 21.5022V22.34C17.235 22.9622 16.7311 23.4666 16.1084 23.4666C15.4857 23.4666 14.9811 22.9614 14.9811 22.34V21.4089C13.9129 21.2078 12.8729 20.7916 11.9558 20.1354C11.6676 19.9332 11.4653 19.5602 11.4653 19.1545C11.4653 18.4781 12.0058 17.9547 12.6827 17.9547C13.0209 17.9547 13.2567 18.0717 13.4261 18.1905C14.3242 18.8498 15.304 19.2556 16.4544 19.2556C17.5202 19.2556 18.1636 18.8333 18.1636 18.1393V18.1052C18.1636 17.4465 17.7578 17.109 15.778 16.6002C13.3944 15.992 11.8541 15.3316 11.8541 12.9796V12.9455C11.8541 11.1144 13.1148 9.8209 14.9817 9.47669V8.59437C14.9817 7.97167 15.4862 7.46655 16.109 7.46655C16.7317 7.46655 17.2357 7.97109 17.2357 8.59437V9.48462C18.1643 9.63696 19.0088 9.9513 19.754 10.426C20.0429 10.593 20.3304 10.9501 20.3304 11.4577C20.3304 12.1334 19.7887 12.6587 19.1124 12.6587C18.8577 12.6587 18.656 12.591 18.4537 12.4716C17.5897 11.9653 16.7781 11.6765 15.9646 11.6765C14.9671 11.6765 14.4432 12.1335 14.4432 12.7081V12.7428C14.4432 13.5203 14.9502 13.7744 16.9975 14.299C19.3982 14.9248 20.7527 15.7882 20.7527 17.8507L20.7519 17.8865Z" fill="white"/>
</svg>
